<svg xmlns="http://www.w3.org/2000/svg" width="640" height="420" viewBox="0 0 640 420" fill="none">
  <rect x="18" y="18" width="604" height="384" rx="28" fill="#FFFBEB" stroke="#E7E5E4" stroke-width="4"/>

  <g opacity="0.95">
    <rect x="170" y="106" width="300" height="210" rx="24" fill="#FFFFFF" stroke="#E7E5E4" stroke-width="4"/>
    <rect x="200" y="142" width="240" height="16" rx="8" fill="#0F172A" opacity="0.10"/>
    <rect x="200" y="172" width="190" height="12" rx="6" fill="#0F172A" opacity="0.08"/>

    <path d="M320 288c-30-18-64-42-64-76 0-18 12-32 30-32 14 0 26 8 34 20 8-12 20-20 34-20 18 0 30 14 30 32 0 34-34 58-64 76z" fill="#F59E0B" opacity="0.24"/>
    <path d="M320 282c-27-16-58-38-58-70 0-14 10-26 24-26 14 0 26 10 34 26 8-16 20-26 34-26 14 0 24 12 24 26 0 32-31 54-58 70z" stroke="#92400E" stroke-opacity="0.35" stroke-width="6" stroke-linejoin="round"/>
  </g>

  <path d="M138 340h364" stroke="#0F172A" stroke-opacity="0.06" stroke-width="10" stroke-linecap="round"/>
</svg>
