<svg xmlns="http://www.w3.org/2000/svg" width="640" height="420" viewBox="0 0 640 420" fill="none">
  <rect x="18" y="18" width="604" height="384" rx="28" fill="#FFFBEB" stroke="#E7E5E4" stroke-width="4"/>
  <path d="M130 310c44-78 96-118 160-118 64 0 118 36 170 102" stroke="#92400E" stroke-opacity="0.35" stroke-width="10" stroke-linecap="round"/>
  <circle cx="210" cy="250" r="14" fill="#F59E0B" opacity="0.25"/>
  <circle cx="430" cy="230" r="18" fill="#F59E0B" opacity="0.20"/>

  <g opacity="0.9">
    <rect x="110" y="88" width="180" height="230" rx="22" fill="#FFFFFF" stroke="#E7E5E4" stroke-width="4"/>
    <rect x="136" y="122" width="128" height="14" rx="7" fill="#0F172A" opacity="0.12"/>
    <rect x="136" y="148" width="98" height="10" rx="5" fill="#0F172A" opacity="0.10"/>
    <rect x="136" y="170" width="116" height="10" rx="5" fill="#0F172A" opacity="0.10"/>
    <rect x="136" y="192" width="104" height="10" rx="5" fill="#0F172A" opacity="0.10"/>
    <rect x="136" y="214" width="124" height="10" rx="5" fill="#0F172A" opacity="0.10"/>
    <rect x="136" y="236" width="88" height="10" rx="5" fill="#0F172A" opacity="0.10"/>
  </g>

  <g opacity="0.9">
    <rect x="300" y="112" width="230" height="206" rx="22" fill="#FFFFFF" stroke="#E7E5E4" stroke-width="4"/>
    <rect x="326" y="144" width="164" height="14" rx="7" fill="#0F172A" opacity="0.12"/>
    <rect x="326" y="170" width="132" height="10" rx="5" fill="#0F172A" opacity="0.10"/>
    <rect x="326" y="192" width="150" height="10" rx="5" fill="#0F172A" opacity="0.10"/>
    <rect x="326" y="214" width="118" height="10" rx="5" fill="#0F172A" opacity="0.10"/>
    <rect x="326" y="236" width="140" height="10" rx="5" fill="#0F172A" opacity="0.10"/>
  </g>

  <path d="M120 346h400" stroke="#0F172A" stroke-opacity="0.06" stroke-width="10" stroke-linecap="round"/>
</svg>
