<svg xmlns="http://www.w3.org/2000/svg" width="1200" height="800" viewBox="0 0 1200 800" preserveAspectRatio="none">
  <defs>
    <linearGradient id="fade" x1="0" y1="0" x2="1" y2="0">
      <stop offset="0" stop-color="#0f172a" stop-opacity="0.00" />
      <stop offset="0.5" stop-color="#0f172a" stop-opacity="0.10" />
      <stop offset="1" stop-color="#0f172a" stop-opacity="0.00" />
    </linearGradient>
  </defs>
  <g fill="none" stroke="url(#fade)" stroke-width="1">
    <path d="M-50 110 C 250 40, 450 190, 750 120 S 1150 160, 1250 90" />
    <path d="M-50 210 C 260 140, 440 290, 760 220 S 1160 260, 1250 190" />
    <path d="M-50 310 C 240 240, 460 390, 740 320 S 1140 360, 1250 290" />
    <path d="M-50 410 C 260 340, 440 490, 760 420 S 1160 460, 1250 390" />
    <path d="M-50 510 C 240 440, 460 590, 740 520 S 1140 560, 1250 490" />
    <path d="M-50 610 C 260 540, 440 690, 760 620 S 1160 660, 1250 590" />
  </g>
</svg>
